<svg width="92" height="49" viewBox="0 0 92 49" fill="none" xmlns="http://www.w3.org/2000/svg">
<path d="M0 26.2627C0 25.9332 0.109842 25.5707 0.329525 25.1753C0.549209 24.7579 0.801845 24.3734 1.08743 24.0219C1.39499 23.6485 1.68058 23.319 1.9442 23.0334C2.22979 22.7478 2.43849 22.5501 2.5703 22.4402L9.81985 9.16035C10.0395 8.9846 10.2373 8.76492 10.413 8.5013C10.5887 8.21571 10.7645 7.95209 10.9402 7.71044C11.138 7.44682 11.3467 7.22713 11.5663 7.05139C11.808 6.87564 12.0936 6.78777 12.4231 6.78777C12.4231 7.13926 12.3792 7.56764 12.2913 8.07291C12.2254 8.55622 12.1155 8.9187 11.9618 9.16035L5.73374 20.2653C6.39279 20.0017 6.99692 19.9248 7.54613 20.0347C8.11731 20.1226 8.64455 20.3093 9.12785 20.5949C9.61115 20.8805 10.0615 21.232 10.4789 21.6494C10.9183 22.0448 11.3247 22.4292 11.6981 22.8027C12.0936 23.1762 12.467 23.4947 12.8185 23.7583C13.17 24.0219 13.5215 24.1537 13.873 24.1537C14.6419 24.1537 15.3888 23.7693 16.1138 23.0004C16.8387 22.2315 17.5307 21.2429 18.1898 20.0347C18.8488 18.8264 19.453 17.4864 20.0022 16.0145C20.5514 14.5426 21.0237 13.1147 21.4191 11.7306C21.8146 10.3247 22.1221 9.05051 22.3418 7.90815C22.5615 6.74383 22.6713 5.87608 22.6713 5.3049C22.6713 4.99734 22.6384 4.66782 22.5725 4.31633C22.5285 3.94286 22.4297 3.61334 22.2759 3.32775C22.1221 3.02019 21.9134 2.76756 21.6498 2.56984C21.4082 2.37213 21.0896 2.27327 20.6942 2.27327C20.101 2.27327 19.5628 2.5259 19.0795 3.03118C18.5962 3.53645 18.1568 4.18451 17.7614 4.97538C17.366 5.76624 17.0145 6.65595 16.7069 7.64453C16.4213 8.61114 16.1687 9.55578 15.949 10.4784C15.7513 11.4011 15.5975 12.2469 15.4877 13.0158C15.3998 13.7847 15.3559 14.3668 15.3559 14.7623C15.3559 15.2016 15.3998 15.619 15.4877 16.0145C15.5975 16.4099 15.7184 16.7943 15.8502 17.1678C15.982 17.5413 16.0918 17.9257 16.1797 18.3211C16.2895 18.6946 16.3445 19.09 16.3445 19.5074C15.7293 19.5074 15.2351 19.3537 14.8616 19.0461C14.5101 18.7385 14.2465 18.3541 14.0707 17.8928C13.895 17.4314 13.7742 16.9371 13.7083 16.4099C13.6643 15.8607 13.6423 15.3554 13.6423 14.8941C13.6423 14.3668 13.7083 13.6309 13.8401 12.6863C13.9938 11.7416 14.2025 10.7311 14.4662 9.65464C14.7517 8.55622 15.0923 7.44682 15.4877 6.32643C15.9051 5.20604 16.3774 4.1955 16.9046 3.2948C17.4539 2.37213 18.058 1.6252 18.717 1.05402C19.3981 0.460879 20.134 0.164307 20.9249 0.164307C20.9908 0.164307 21.1336 0.175291 21.3532 0.197259C21.5949 0.219228 21.7487 0.230212 21.8146 0.230212C22.1661 0.669579 22.4736 1.08698 22.7372 1.48241C23.0009 1.87784 23.2205 2.27327 23.3963 2.6687C23.594 3.06413 23.7368 3.48153 23.8247 3.92089C23.9126 4.36026 23.9565 4.85455 23.9565 5.40376C23.9565 6.08478 23.8466 7.07335 23.627 8.36949C23.4292 9.66562 23.1327 11.0936 22.7372 12.6533C22.3418 14.1911 21.8585 15.7728 21.2873 17.3985C20.7162 19.0022 20.0571 20.4631 19.3102 21.7812C18.5633 23.0993 17.7394 24.1867 16.8387 25.0435C15.938 25.8783 14.9714 26.2957 13.9389 26.2957C13.2359 26.2957 12.6318 26.1858 12.1265 25.9661C11.6432 25.7465 11.2148 25.4828 10.8414 25.1753C10.4679 24.8458 10.1274 24.4943 9.81985 24.1208C9.5123 23.7254 9.19376 23.3739 8.86423 23.0663C8.53471 22.7368 8.17223 22.4622 7.7768 22.2425C7.38137 22.0228 6.89806 21.913 6.32689 21.913C5.73374 21.913 5.21748 22.0997 4.77812 22.4732C4.33875 22.8466 3.9543 23.308 3.62478 23.8572C3.29525 24.4064 3.00966 24.9776 2.76801 25.5707C2.52636 26.1639 2.31766 26.6801 2.14191 27.1195C2.09798 27.1195 2.02109 27.1195 1.91125 27.1195C1.82337 27.1414 1.75747 27.1524 1.71353 27.1524C1.60369 27.1524 1.44991 27.1305 1.2522 27.0865C1.07645 27.0426 0.889718 26.9877 0.692003 26.9218C0.516256 26.8339 0.351494 26.735 0.197715 26.6252C0.0659051 26.5153 0 26.3945 0 26.2627Z" fill="black"/>
<path d="M25.1757 24.9776C25.3734 23.7254 25.7469 22.572 26.2961 21.5175C26.8453 20.4631 27.4714 19.5514 28.1744 18.7825C28.8994 17.9916 29.6792 17.3436 30.514 16.8383C31.3488 16.333 32.1617 16.0145 32.9525 15.8827C33.7434 15.7289 34.4683 15.7618 35.1274 15.9815C35.8084 16.2012 36.3576 16.6406 36.775 17.2996C36.775 17.8049 36.6542 18.2882 36.4125 18.7495C36.1929 19.2109 35.9402 19.6722 35.6546 20.1335C35.391 20.5949 35.1384 21.0672 34.8967 21.5505C34.677 22.0338 34.5672 22.5501 34.5672 23.0993C34.5672 23.6704 34.688 24.1318 34.9297 24.4833C35.1933 24.8128 35.6437 24.9776 36.2807 24.9776C36.808 24.9776 37.3132 24.9007 37.7966 24.7469C38.3018 24.5931 38.8071 24.5162 39.3124 24.5162C39.4002 24.5162 39.543 24.5272 39.7407 24.5492C39.9604 24.5492 40.1032 24.5492 40.1691 24.5492C39.9055 24.9226 39.565 25.2412 39.1476 25.5048C38.7302 25.7684 38.2908 25.9991 37.8295 26.1968C37.3682 26.3726 36.8849 26.5044 36.3796 26.5922C35.8963 26.6801 35.4459 26.724 35.0285 26.724C34.6331 26.724 34.2816 26.6362 33.9741 26.4604C33.6665 26.2847 33.4029 26.054 33.1832 25.7684C32.9635 25.4828 32.7878 25.1643 32.656 24.8128C32.5461 24.4393 32.4912 24.0769 32.4912 23.7254C32.1617 24.0988 31.7992 24.4943 31.4038 24.9117C31.0303 25.3071 30.6239 25.6696 30.1845 25.9991C29.7671 26.3286 29.3058 26.6032 28.8005 26.8229C28.3172 27.0426 27.8119 27.1524 27.2847 27.1524C26.7135 27.1524 26.2192 26.9437 25.8018 26.5263C25.3844 26.087 25.1757 25.5707 25.1757 24.9776ZM27.3506 23.956C27.3506 24.1318 27.3506 24.3295 27.3506 24.5492C27.3726 24.7689 27.5154 24.9117 27.779 24.9776C28.3282 24.8458 28.9543 24.5602 29.6573 24.1208C30.3603 23.6595 31.0193 23.1322 31.6344 22.5391C32.2495 21.924 32.7658 21.2759 33.1832 20.5949C33.6006 19.8919 33.8093 19.2219 33.8093 18.5848C33.8093 18.5408 33.7983 18.4749 33.7763 18.3871C33.7763 18.2772 33.7763 18.2003 33.7763 18.1564C33.0294 18.1564 32.2715 18.3102 31.5026 18.6177C30.7337 18.9253 30.0417 19.3537 29.4266 19.9029C28.8115 20.4301 28.3062 21.0452 27.9108 21.7482C27.5373 22.4512 27.3506 23.1871 27.3506 23.956Z" fill="black"/>
<path d="M33.0184 44.6173C33.0184 43.3651 33.2381 42.2447 33.6775 41.2561C34.0949 40.2675 34.6551 39.3449 35.3581 38.4881C36.0611 37.6533 36.8629 36.8734 37.7636 36.1485C38.6643 35.4455 39.587 34.7535 40.5316 34.0725C41.4762 33.4134 42.3989 32.7434 43.2996 32.0624C44.2003 31.3813 45.0022 30.6564 45.7052 29.8875C46.4081 29.1186 46.9683 28.2838 47.3857 27.3831C47.8251 26.4824 48.0448 25.4828 48.0448 24.3844C48.0448 24.3405 48.0448 24.2416 48.0448 24.0878C48.0448 23.9121 48.0338 23.8023 48.0118 23.7583C47.8581 23.8901 47.5615 24.0878 47.1221 24.3515C46.6828 24.5931 46.2104 24.8567 45.7052 25.1423C45.2219 25.4059 44.7495 25.6476 44.2882 25.8673C43.8269 26.087 43.4973 26.2298 43.2996 26.2957C43.2777 26.2957 43.1898 26.3066 43.036 26.3286C42.9042 26.3506 42.7394 26.3726 42.5417 26.3945C42.366 26.4165 42.1902 26.4385 42.0145 26.4604C41.8387 26.4604 41.6959 26.4604 41.5861 26.4604C40.5975 26.2847 39.9385 25.9442 39.6089 25.4389C39.2794 24.9117 39.1915 24.2965 39.3453 23.5936C39.4991 22.8906 39.8396 22.1436 40.3668 21.3528C40.9161 20.54 41.5641 19.7711 42.311 19.0461C43.0799 18.2992 43.9038 17.6401 44.7825 17.069C45.6832 16.4758 46.5509 16.0584 47.3857 15.8168C48.2425 15.5531 49.0224 15.4982 49.7254 15.652C50.4503 15.7838 51.0105 16.2122 51.4059 16.9371C51.5378 17.8598 51.5378 18.7276 51.4059 19.5404C51.2741 20.3313 51.0984 21.1111 50.8787 21.88C50.659 22.6489 50.4393 23.4288 50.2197 24.2197C50 24.9885 49.8682 25.8343 49.8242 26.757H50.1208C50.2526 26.6252 50.4723 26.3945 50.7798 26.065C51.1094 25.7355 51.4499 25.395 51.8014 25.0435C52.1748 24.67 52.5263 24.3295 52.8559 24.0219C53.1854 23.6924 53.416 23.4617 53.5479 23.3299C53.6138 23.264 53.7456 23.1762 53.9433 23.0663C54.163 22.9565 54.3168 22.9016 54.4046 22.9016V23.0004V23.0663C54.4046 23.0883 54.4156 23.0993 54.4376 23.0993C54.4376 23.8901 54.2069 24.6151 53.7456 25.2741C53.3062 25.9332 52.768 26.5483 52.1309 27.1195C51.4938 27.6907 50.8348 28.2179 50.1537 28.7012C49.4727 29.2065 48.9016 29.6898 48.4402 30.1511C48.0668 30.92 47.6603 31.8756 47.221 33.018C46.7816 34.1823 46.2983 35.4125 45.7711 36.7087C45.2438 38.0268 44.6507 39.3558 43.9916 40.6959C43.3545 42.058 42.6296 43.3102 41.8168 44.4525C41.0259 45.5949 40.1472 46.5725 39.1806 47.3853C38.214 48.2201 37.1375 48.7583 35.9512 49C35.38 49 34.9077 48.8572 34.5343 48.5716C34.1388 48.286 33.8313 47.9235 33.6116 47.4841C33.3919 47.0667 33.2381 46.5944 33.1502 46.0672C33.0624 45.5619 33.0184 45.0786 33.0184 44.6173ZM34.7649 46.3967C34.9407 46.8141 35.1494 47.0667 35.391 47.1546C35.6327 47.2425 35.9073 47.2864 36.2148 47.2864C36.786 47.2864 37.4121 46.9898 38.0931 46.3967C38.7741 45.8036 39.4552 45.0347 40.1362 44.09C40.8392 43.1674 41.5092 42.1348 42.1463 40.9925C42.7834 39.8501 43.3436 38.7407 43.8269 37.6643C44.3321 36.5878 44.7276 35.5993 45.0132 34.6986C45.3207 33.8198 45.4745 33.1608 45.4745 32.7214C45.4745 32.6775 45.4635 32.6006 45.4415 32.4907C45.4415 32.4029 45.4415 32.337 45.4415 32.293C45.3756 32.337 45.2219 32.4029 44.9802 32.4907C44.7605 32.6006 44.6287 32.6775 44.5848 32.7214C43.6621 33.4024 42.6186 34.1493 41.4543 34.9622C40.3119 35.797 39.2465 36.7087 38.2579 37.6972C37.2473 38.6858 36.4016 39.7513 35.7205 40.8936C35.0395 42.058 34.699 43.3102 34.699 44.6502C34.699 44.7161 34.699 44.837 34.699 45.0127C34.699 45.1884 34.71 45.3642 34.732 45.5399C34.732 45.7157 34.743 45.8804 34.7649 46.0342C34.7649 46.21 34.7649 46.3308 34.7649 46.3967ZM49.297 17.3326C48.9455 17.3326 48.4842 17.4534 47.913 17.6951C47.3418 17.9147 46.7267 18.2223 46.0676 18.6177C45.4306 19.0132 44.7825 19.4635 44.1234 19.9688C43.4644 20.474 42.8603 21.0013 42.311 21.5505C41.7838 22.0997 41.3554 22.6489 41.0259 23.1981C40.6964 23.7473 40.5316 24.2526 40.5316 24.7139C40.9929 24.7139 41.5531 24.6261 42.2122 24.4503C42.8712 24.2526 43.5523 24 44.2552 23.6924C44.9802 23.3629 45.6942 22.9894 46.3972 22.572C47.1001 22.1327 47.7262 21.6713 48.2755 21.188C48.8466 20.7047 49.308 20.2104 49.6595 19.7052C50.011 19.1999 50.1867 18.7056 50.1867 18.2223C50.1867 17.6291 49.8901 17.3326 49.297 17.3326Z" fill="black"/>
<path d="M54.2728 24.3515C54.2728 24.2636 54.2728 24.0878 54.2728 23.8242C54.2948 23.5386 54.3058 23.3519 54.3058 23.264C55.0088 21.6603 55.9095 20.1775 57.0079 18.8154C58.1063 17.4534 59.3475 16.2451 60.7315 15.1907C60.7754 15.1907 60.8414 15.1797 60.9292 15.1577C61.0391 15.1138 61.116 15.0918 61.1599 15.0918C61.753 15.0918 62.2363 15.2236 62.6098 15.4872C63.0052 15.7289 63.3128 16.0584 63.5325 16.4758C63.7741 16.8712 63.9389 17.3216 64.0268 17.8269C64.1146 18.3102 64.1586 18.7825 64.1586 19.2438C64.1586 20.1006 63.9609 21.0013 63.5654 21.9459C63.17 22.8686 62.6318 23.7254 61.9508 24.5162C61.2917 25.2851 60.5338 25.9222 59.677 26.4275C58.8203 26.9108 57.9305 27.1524 57.0079 27.1524C56.0852 27.1524 55.3932 26.9108 54.9319 26.4275C54.4925 25.9222 54.2728 25.2302 54.2728 24.3515ZM56.8431 23.956C56.8431 24.1977 56.942 24.3624 57.1397 24.4503C57.3374 24.5382 57.5351 24.5821 57.7328 24.5821C58.282 24.5821 58.8093 24.4393 59.3146 24.1537C59.8418 23.8462 60.3031 23.4727 60.6986 23.0334C61.116 22.572 61.4455 22.0668 61.6871 21.5175C61.9288 20.9683 62.0496 20.4411 62.0496 19.9358C62.0496 19.6942 62.0276 19.4306 61.9837 19.145C61.9617 18.8374 61.8958 18.5738 61.786 18.3541C61.6762 18.1125 61.5004 17.9257 61.2588 17.7939C61.0391 17.6621 60.7205 17.6401 60.3031 17.728C59.9956 17.7939 59.6441 18.0795 59.2486 18.5848C58.8532 19.09 58.4688 19.6832 58.0953 20.3642C57.7438 21.0233 57.4472 21.6933 57.2056 22.3743C56.9639 23.0334 56.8431 23.5606 56.8431 23.956Z" fill="black"/>
<path d="M69.9253 22.4402C69.6616 22.7917 69.442 23.1871 69.2662 23.6265C69.0905 24.0659 68.8928 24.4833 68.6731 24.8787C68.4534 25.2741 68.1898 25.6037 67.8822 25.8673C67.5747 26.1309 67.1682 26.2627 66.663 26.2627C66.2456 26.2627 65.96 26.1968 65.8062 26.065C65.6524 25.9112 65.5755 25.6146 65.5755 25.1753C65.5755 24.648 65.7183 24.0659 66.0039 23.4288C66.3115 22.7917 66.674 22.1766 67.0913 21.5835C67.5088 20.9683 67.9371 20.3972 68.3765 19.8699C68.8159 19.3427 69.1783 18.9143 69.4639 18.5848L75.5602 5.40376C75.7139 5.0303 75.9885 4.6788 76.384 4.34928C76.8014 4.01975 77.2297 3.85499 77.6691 3.85499V4.94242L74.1761 13.0158V13.8067C74.5496 13.8067 74.9011 13.7517 75.2306 13.6419C75.5602 13.5101 75.8897 13.3673 76.2192 13.2135C76.5487 13.0597 76.8892 12.9279 77.2407 12.8181C77.6142 12.6863 78.0206 12.6204 78.46 12.6204C78.8554 12.884 79.0641 13.2135 79.0861 13.6089C79.108 13.9824 79.0092 14.3998 78.7895 14.8611C78.5698 15.3005 78.2623 15.7509 77.8668 16.2122C77.4934 16.6735 77.0979 17.1239 76.6805 17.5632C76.2631 17.9806 75.8567 18.3541 75.4613 18.6836C75.0878 19.0132 74.8022 19.2658 74.6045 19.4415C74.275 19.7052 73.9674 19.8919 73.6819 20.0017C73.4182 20.0896 73.1876 20.1775 72.9899 20.2653C72.7921 20.3532 72.6384 20.485 72.5285 20.6608C72.4406 20.8365 72.3967 21.1331 72.3967 21.5505C72.3967 22.1656 72.5615 22.6709 72.891 23.0663C73.2205 23.4398 73.6489 23.7363 74.1761 23.956C74.7253 24.1757 75.3295 24.3295 75.9885 24.4174C76.6695 24.4833 77.3506 24.5162 78.0316 24.5162C78.7126 24.5162 79.3607 24.4943 79.9758 24.4503C80.5909 24.3844 81.1181 24.3185 81.5575 24.2526L81.9529 24.648C81.7113 24.9776 81.3378 25.2961 80.8326 25.6037C80.3493 25.8892 79.811 26.1529 79.2179 26.3945C78.6467 26.6142 78.0755 26.8009 77.5043 26.9547C76.9332 27.0865 76.4609 27.1524 76.0874 27.1524C75.3844 27.1524 74.7034 27.0426 74.0443 26.8229C73.3853 26.5813 72.7812 26.2517 72.2319 25.8343C71.6827 25.4169 71.1994 24.9226 70.782 24.3515C70.3866 23.7583 70.101 23.1212 69.9253 22.4402ZM76.4169 15.0259C76.2192 15.0259 75.9226 15.1028 75.5272 15.2566C75.1318 15.4103 74.7363 15.6081 74.3409 15.8497C73.9455 16.0914 73.605 16.355 73.3194 16.6406C73.0338 16.9262 72.891 17.2117 72.891 17.4973V17.728C73.0448 17.6621 73.3084 17.5523 73.6819 17.3985C74.0773 17.2447 74.4727 17.058 74.8681 16.8383C75.2855 16.5966 75.648 16.322 75.9556 16.0145C76.2631 15.7069 76.4169 15.3774 76.4169 15.0259Z" fill="black"/>
<path d="M81.3598 24.3515C81.3598 24.2636 81.3598 24.0878 81.3598 23.8242C81.3818 23.5386 81.3927 23.3519 81.3927 23.264C82.0957 21.6603 82.9964 20.1775 84.0949 18.8154C85.1933 17.4534 86.4345 16.2451 87.8185 15.1907C87.8624 15.1907 87.9283 15.1797 88.0162 15.1577C88.126 15.1138 88.2029 15.0918 88.2469 15.0918C88.84 15.0918 89.3233 15.2236 89.6968 15.4872C90.0922 15.7289 90.3998 16.0584 90.6195 16.4758C90.8611 16.8712 91.0259 17.3216 91.1137 17.8269C91.2016 18.3102 91.2456 18.7825 91.2456 19.2438C91.2456 20.1006 91.0478 21.0013 90.6524 21.9459C90.257 22.8686 89.7188 23.7254 89.0377 24.5162C88.3787 25.2851 87.6208 25.9222 86.764 26.4275C85.9072 26.9108 85.0175 27.1524 84.0949 27.1524C83.1722 27.1524 82.4802 26.9108 82.0188 26.4275C81.5795 25.9222 81.3598 25.2302 81.3598 24.3515ZM83.9301 23.956C83.9301 24.1977 84.0289 24.3624 84.2267 24.4503C84.4244 24.5382 84.6221 24.5821 84.8198 24.5821C85.369 24.5821 85.8963 24.4393 86.4015 24.1537C86.9288 23.8462 87.3901 23.4727 87.7855 23.0334C88.2029 22.572 88.5325 22.0668 88.7741 21.5175C89.0158 20.9683 89.1366 20.4411 89.1366 19.9358C89.1366 19.6942 89.1146 19.4306 89.0707 19.145C89.0487 18.8374 88.9828 18.5738 88.873 18.3541C88.7631 18.1125 88.5874 17.9257 88.3457 17.7939C88.126 17.6621 87.8075 17.6401 87.3901 17.728C87.0826 17.7939 86.7311 18.0795 86.3356 18.5848C85.9402 19.09 85.5557 19.6832 85.1823 20.3642C84.8308 21.0233 84.5342 21.6933 84.2926 22.3743C84.0509 23.0334 83.9301 23.5606 83.9301 23.956Z" fill="black"/>
</svg>
