<svg width="220" height="119" viewBox="0 0 220 119" fill="none" xmlns="http://www.w3.org/2000/svg">
<path d="M0.121094 63.5561C0.121094 62.7638 0.38522 61.8921 0.913472 60.9413C1.44172 59.9376 2.04921 59.0132 2.73594 58.168C3.47549 57.2699 4.16222 56.4776 4.79612 55.7908C5.48285 55.1041 5.98469 54.6287 6.30164 54.3646L23.734 22.4317C24.2622 22.0091 24.7376 21.4809 25.1602 20.847C25.5828 20.1602 26.0054 19.5263 26.428 18.9453C26.9035 18.3114 27.4053 17.7831 27.9336 17.3605C28.5146 16.9379 29.2014 16.7266 29.9937 16.7266C29.9937 17.5718 29.8881 18.6019 29.6768 19.8169C29.5183 20.979 29.2542 21.8506 28.8844 22.4317L13.9085 49.1349C15.4932 48.501 16.9459 48.3161 18.2666 48.5802C19.64 48.7915 20.9078 49.2405 22.07 49.9272C23.2321 50.614 24.315 51.4592 25.3187 52.4628C26.3752 53.4137 27.3525 54.3381 28.2505 55.2362C29.2014 56.1342 30.0994 56.9002 30.9446 57.5341C31.7898 58.168 32.635 58.4849 33.4802 58.4849C35.3291 58.4849 37.1251 57.5605 38.8684 55.7116C40.6116 53.8627 42.2756 51.4856 43.8604 48.5802C45.4451 45.6748 46.8978 42.4525 48.2184 38.9132C49.5391 35.3739 50.6748 31.9403 51.6257 28.6123C52.5765 25.2315 53.3161 22.1676 53.8443 19.4207C54.3726 16.621 54.6367 14.5344 54.6367 13.1609C54.6367 12.4213 54.5575 11.629 54.399 10.7838C54.2933 9.88574 54.0556 9.09336 53.6858 8.40663C53.3161 7.66708 52.8142 7.05959 52.1803 6.58416C51.5993 6.10874 50.8333 5.87102 49.8824 5.87102C48.4562 5.87102 47.1619 6.47851 45.9998 7.69349C44.8376 8.90847 43.7811 10.4668 42.8303 12.3685C41.8794 14.2702 41.0342 16.4097 40.2947 18.7868C39.6079 21.1111 39.0004 23.3826 38.4722 25.6012C37.9968 27.8199 37.627 29.8537 37.3629 31.7025C37.1516 33.5514 37.0459 34.9513 37.0459 35.9021C37.0459 36.9587 37.1516 37.9623 37.3629 38.9132C37.627 39.864 37.9175 40.7885 38.2345 41.6865C38.5514 42.5845 38.8156 43.509 39.0269 44.4598C39.291 45.3579 39.423 46.3087 39.423 47.3124C37.9439 47.3124 36.7554 46.9426 35.8573 46.2031C35.0121 45.4635 34.3782 44.5391 33.9556 43.4297C33.533 42.3204 33.2425 41.1318 33.084 39.864C32.9784 38.5434 32.9255 37.3284 32.9255 36.2191C32.9255 34.9513 33.084 33.1817 33.401 30.9102C33.7707 28.6387 34.2726 26.2087 34.9065 23.6203C35.5932 20.979 36.412 18.3114 37.3629 15.6173C38.3665 12.9232 39.5023 10.4932 40.7701 8.3274C42.0907 6.10874 43.5434 4.31268 45.1282 2.93923C46.7657 1.51294 48.5354 0.799805 50.4371 0.799805C50.5956 0.799805 50.9389 0.826217 51.4672 0.879042C52.0483 0.931868 52.418 0.95828 52.5765 0.95828C53.4217 2.01478 54.1613 3.01846 54.7952 3.96932C55.4291 4.92017 55.9573 5.87102 56.3799 6.82188C56.8554 7.77273 57.1987 8.77641 57.41 9.83291C57.6213 10.8894 57.727 12.078 57.727 13.3986C57.727 15.0362 57.4628 17.4133 56.9346 20.53C56.4592 23.6467 55.746 27.0803 54.7952 30.8309C53.8443 34.5287 52.6822 38.3321 51.3087 42.2412C49.9353 46.0974 48.3505 49.6103 46.5544 52.7798C44.7584 55.9493 42.7774 58.5642 40.6116 60.6243C38.4458 62.6317 36.1215 63.6354 33.6387 63.6354C31.9483 63.6354 30.4956 63.3713 29.2806 62.843C28.1184 62.3147 27.0884 61.6808 26.1903 60.9413C25.2923 60.1489 24.4735 59.3037 23.734 58.4057C22.9944 57.4548 22.2284 56.6096 21.4361 55.8701C20.6437 55.0777 19.7721 54.4174 18.8212 53.8891C17.8704 53.3609 16.7082 53.0968 15.3348 53.0968C13.9085 53.0968 12.6671 53.5458 11.6106 54.4438C10.5541 55.3418 9.62963 56.4512 8.83725 57.7718C8.04487 59.0924 7.35815 60.4659 6.77707 61.8921C6.19599 63.3184 5.69415 64.5598 5.27155 65.6163C5.1659 65.6163 4.98101 65.6163 4.71689 65.6163C4.50559 65.6692 4.34711 65.6956 4.24146 65.6956C3.97733 65.6956 3.60756 65.6427 3.13213 65.5371C2.70953 65.4314 2.26051 65.2994 1.78509 65.1409C1.36249 64.9296 0.966297 64.6919 0.596521 64.4278C0.279569 64.1636 0.121094 63.8731 0.121094 63.5561Z" fill="white"/>
<path d="M60.6588 60.4659C61.1342 57.4548 62.0322 54.6815 63.3529 52.1459C64.6735 49.6103 66.179 47.418 67.8694 45.5692C69.6126 43.6675 71.4879 42.1091 73.4953 40.8941C75.5027 39.6791 77.4572 38.9132 79.3589 38.5962C81.2606 38.2265 83.0038 38.3057 84.5886 38.8339C86.2262 39.3622 87.5468 40.4187 88.5505 42.0035C88.5505 43.2184 88.2599 44.3806 87.6789 45.4899C87.1506 46.5993 86.5431 47.7086 85.8564 48.8179C85.2225 49.9272 84.615 51.063 84.0339 52.2251C83.5057 53.3873 83.2415 54.6287 83.2415 55.9493C83.2415 57.3228 83.5321 58.4321 84.1132 59.2773C84.7471 60.0697 85.83 60.4659 87.3619 60.4659C88.6297 60.4659 89.8447 60.281 91.0069 59.9112C92.2218 59.5414 93.4368 59.3565 94.6518 59.3565C94.8631 59.3565 95.2065 59.3829 95.6819 59.4358C96.2101 59.4358 96.5535 59.4358 96.712 59.4358C96.0781 60.3338 95.2593 61.0998 94.2556 61.7337C93.2519 62.3676 92.1954 62.9222 91.0861 63.3977C89.9768 63.8203 88.8146 64.1372 87.5996 64.3485C86.4375 64.5598 85.3546 64.6655 84.3509 64.6655C83.4 64.6655 82.5548 64.4542 81.8153 64.0316C81.0757 63.609 80.4418 63.0543 79.9136 62.3676C79.3853 61.6808 78.9627 60.9149 78.6458 60.0697C78.3816 59.1716 78.2496 58.3 78.2496 57.4548C77.4572 58.3529 76.5856 59.3037 75.6347 60.3074C74.7367 61.2582 73.7594 62.1299 72.7029 62.9222C71.6992 63.7146 70.5899 64.3749 69.3749 64.9032C68.2128 65.4314 66.9978 65.6956 65.73 65.6956C64.3565 65.6956 63.168 65.1937 62.1643 64.19C61.1606 63.1335 60.6588 61.8921 60.6588 60.4659ZM65.8885 58.0095C65.8885 58.4321 65.8885 58.9075 65.8885 59.4358C65.9413 59.964 66.2847 60.3074 66.9186 60.4659C68.2392 60.1489 69.7447 59.4622 71.4351 58.4057C73.1255 57.2964 74.7103 56.0285 76.1894 54.6023C77.6685 53.1232 78.9099 51.5648 79.9136 49.9272C80.9172 48.2368 81.4191 46.6257 81.4191 45.0937C81.4191 44.9881 81.3927 44.8296 81.3398 44.6183C81.3398 44.3542 81.3398 44.1693 81.3398 44.0636C79.5438 44.0636 77.7213 44.4334 75.8724 45.173C74.0235 45.9125 72.3596 46.9426 70.8804 48.2632C69.4013 49.5311 68.1864 51.0102 67.2355 52.7006C66.3375 54.391 65.8885 56.1606 65.8885 58.0095Z" fill="white"/>
<path d="M79.5174 107.692C79.5174 104.681 80.0456 101.986 81.1021 99.6093C82.1058 97.2322 83.4528 95.0135 85.1432 92.9534C86.8337 90.946 88.7618 89.0707 90.9276 87.3275C93.0934 85.6371 95.3121 83.9731 97.5836 82.3355C99.8551 80.7507 102.074 79.1396 104.24 77.502C106.405 75.8644 108.334 74.1212 110.024 72.2723C111.714 70.4234 113.061 68.4161 114.065 66.2502C115.122 64.0844 115.65 61.6808 115.65 59.0396C115.65 58.9339 115.65 58.6962 115.65 58.3264C115.65 57.9038 115.623 57.6397 115.571 57.5341C115.201 57.851 114.488 58.3264 113.431 58.9604C112.375 59.5414 111.239 60.1753 110.024 60.8621C108.862 61.496 107.726 62.077 106.617 62.6053C105.507 63.1335 104.715 63.4769 104.24 63.6354C104.187 63.6354 103.975 63.6618 103.606 63.7146C103.289 63.7674 102.893 63.8203 102.417 63.8731C101.994 63.9259 101.572 63.9787 101.149 64.0316C100.727 64.0316 100.383 64.0316 100.119 64.0316C97.7421 63.609 96.1573 62.7902 95.3649 61.5752C94.5725 60.3074 94.3612 58.8283 94.731 57.1379C95.1008 55.4475 95.9196 53.6514 97.1874 51.7497C98.508 49.7952 100.066 47.9463 101.862 46.2031C103.711 44.407 105.692 42.8223 107.805 41.4488C109.971 40.0225 112.058 39.0188 114.065 38.4378C116.125 37.8039 118.001 37.6718 119.691 38.0416C121.434 38.3585 122.781 39.3886 123.732 41.1318C124.049 43.3505 124.049 45.4371 123.732 47.3916C123.415 49.2933 122.993 51.1686 122.464 53.0175C121.936 54.8664 121.408 56.7417 120.88 58.6434C120.351 60.4923 120.034 62.5261 119.929 64.7447H120.642C120.959 64.4278 121.487 63.8731 122.227 63.0807C123.019 62.2883 123.838 61.4695 124.683 60.6243C125.581 59.7263 126.426 58.9075 127.219 58.168C128.011 57.3756 128.566 56.8209 128.883 56.504C129.041 56.3455 129.358 56.1342 129.833 55.8701C130.362 55.6059 130.731 55.4739 130.943 55.4739V55.7116V55.8701C130.943 55.9229 130.969 55.9493 131.022 55.9493C131.022 57.851 130.467 59.5942 129.358 61.179C128.301 62.7638 127.007 64.2429 125.475 65.6163C123.943 66.9898 122.359 68.2576 120.721 69.4197C119.083 70.6347 117.71 71.7969 116.601 72.9062C115.703 74.7551 114.725 77.053 113.669 79.7999C112.612 82.5996 111.45 85.5578 110.182 88.6745C108.915 91.844 107.488 95.04 105.904 98.2623C104.372 101.537 102.628 104.548 100.674 107.295C98.7722 110.042 96.6591 112.393 94.3348 114.348C92.0105 116.355 89.4221 117.649 86.5695 118.23C85.1961 118.23 84.0603 117.887 83.1623 117.2C82.2114 116.513 81.4719 115.642 80.9436 114.585C80.4154 113.582 80.0456 112.446 79.8343 111.178C79.623 109.963 79.5174 108.801 79.5174 107.692ZM83.717 111.97C84.1396 112.974 84.6414 113.582 85.2225 113.793C85.8036 114.004 86.4639 114.11 87.2034 114.11C88.5769 114.11 90.0824 113.397 91.72 111.97C93.3576 110.544 94.9951 108.695 96.6327 106.424C98.3231 104.205 99.9343 101.722 101.466 98.9754C102.998 96.2285 104.345 93.5609 105.507 90.9724C106.722 88.384 107.673 86.0069 108.36 83.841C109.099 81.728 109.469 80.1432 109.469 79.0867C109.469 78.9811 109.443 78.7962 109.39 78.5321C109.39 78.3208 109.39 78.1623 109.39 78.0567C109.232 78.1623 108.862 78.3208 108.281 78.5321C107.752 78.7962 107.435 78.9811 107.33 79.0867C105.111 80.7243 102.602 82.5204 99.8022 84.4749C97.0553 86.4823 94.4933 88.6745 92.1162 91.0517C89.6862 93.4288 87.6525 95.9908 86.0149 98.7377C84.3773 101.537 83.5585 104.548 83.5585 107.771C83.5585 107.929 83.5585 108.22 83.5585 108.642C83.5585 109.065 83.5849 109.488 83.6377 109.91C83.6377 110.333 83.6641 110.729 83.717 111.099C83.717 111.521 83.717 111.812 83.717 111.97ZM118.661 42.0827C117.816 42.0827 116.706 42.3732 115.333 42.9543C113.959 43.4826 112.48 44.2221 110.896 45.173C109.364 46.1238 107.805 47.2067 106.221 48.4217C104.636 49.6367 103.183 50.9045 101.862 52.2251C100.595 53.5458 99.5645 54.8664 98.7722 56.187C97.9798 57.5077 97.5836 58.7226 97.5836 59.832C98.6929 59.832 100.04 59.6207 101.625 59.1981C103.209 58.7226 104.847 58.1151 106.537 57.3756C108.281 56.5832 109.998 55.6852 111.688 54.6815C113.378 53.625 114.884 52.5157 116.204 51.3535C117.578 50.1914 118.687 49.0028 119.532 47.7878C120.378 46.5728 120.8 45.3843 120.8 44.2221C120.8 42.7958 120.087 42.0827 118.661 42.0827Z" fill="white"/>
<path d="M130.626 58.9604C130.626 58.749 130.626 58.3264 130.626 57.6925C130.679 57.0058 130.705 56.5568 130.705 56.3455C132.395 52.4893 134.561 48.9236 137.202 45.6484C139.844 42.3732 142.828 39.4678 146.156 36.9322C146.262 36.9322 146.42 36.9058 146.632 36.853C146.896 36.7474 147.081 36.6945 147.186 36.6945C148.613 36.6945 149.775 37.0115 150.673 37.6454C151.624 38.2265 152.363 39.0188 152.892 40.0225C153.473 40.9734 153.869 42.0563 154.08 43.2713C154.291 44.4334 154.397 45.5692 154.397 46.6785C154.397 48.7387 153.922 50.9045 152.971 53.176C152.02 55.3946 150.726 57.4548 149.088 59.3565C147.503 61.2054 145.681 62.7374 143.621 63.9523C141.561 65.1145 139.421 65.6956 137.202 65.6956C134.984 65.6956 133.32 65.1145 132.21 63.9523C131.154 62.7374 130.626 61.0734 130.626 58.9604ZM136.806 58.0095C136.806 58.5906 137.044 58.9868 137.519 59.1981C137.995 59.4094 138.47 59.515 138.946 59.515C140.266 59.515 141.534 59.1716 142.749 58.4849C144.017 57.7454 145.126 56.8473 146.077 55.7908C147.081 54.6815 147.873 53.4665 148.454 52.1459C149.035 50.8253 149.326 49.5575 149.326 48.3425C149.326 47.7614 149.273 47.1275 149.167 46.4408C149.115 45.7012 148.956 45.0673 148.692 44.5391C148.428 43.958 148.005 43.509 147.424 43.192C146.896 42.8751 146.13 42.8223 145.126 43.0336C144.387 43.192 143.542 43.8788 142.591 45.0937C141.64 46.3087 140.715 47.735 139.817 49.3726C138.972 50.9573 138.259 52.5685 137.678 54.2061C137.097 55.7908 136.806 57.0586 136.806 58.0095Z" fill="white"/>
<path d="M168.264 54.3646C167.63 55.2098 167.102 56.1606 166.679 57.2171C166.256 58.2736 165.781 59.2773 165.253 60.2282C164.724 61.179 164.091 61.9714 163.351 62.6053C162.611 63.2392 161.634 63.5561 160.419 63.5561C159.415 63.5561 158.729 63.3977 158.359 63.0807C157.989 62.7109 157.804 61.9978 157.804 60.9413C157.804 59.6735 158.148 58.2736 158.834 56.7417C159.574 55.2098 160.446 53.7307 161.449 52.3044C162.453 50.8253 163.483 49.4518 164.54 48.184C165.596 46.9162 166.468 45.8861 167.154 45.0937L181.813 13.3986C182.183 12.5006 182.843 11.6554 183.794 10.863C184.798 10.0706 185.828 9.67444 186.885 9.67444V12.2893L178.485 31.7025V33.6043C179.383 33.6043 180.229 33.4722 181.021 33.2081C181.813 32.8911 182.606 32.5477 183.398 32.178C184.19 31.8082 185.009 31.4912 185.854 31.2271C186.753 30.9102 187.73 30.7517 188.786 30.7517C189.737 31.3856 190.239 32.178 190.292 33.1288C190.345 34.0269 190.107 35.0305 189.579 36.1399C189.05 37.1964 188.311 38.2793 187.36 39.3886C186.462 40.4979 185.511 41.5809 184.507 42.6374C183.504 43.641 182.527 44.5391 181.576 45.3314C180.678 46.1238 179.991 46.7313 179.515 47.1539C178.723 47.7878 177.984 48.2368 177.297 48.501C176.663 48.7123 176.108 48.9236 175.633 49.1349C175.157 49.3462 174.788 49.6631 174.523 50.0857C174.312 50.5083 174.207 51.2215 174.207 52.2251C174.207 53.7042 174.603 54.9192 175.395 55.8701C176.187 56.7681 177.218 57.4812 178.485 58.0095C179.806 58.5377 181.259 58.9075 182.843 59.1188C184.481 59.2773 186.119 59.3565 187.756 59.3565C189.394 59.3565 190.952 59.3037 192.431 59.1981C193.91 59.0396 195.178 58.8811 196.235 58.7226L197.186 59.6735C196.604 60.4659 195.706 61.2318 194.491 61.9714C193.329 62.6581 192.035 63.292 190.609 63.8731C189.235 64.4013 187.862 64.8504 186.488 65.2201C185.115 65.5371 183.979 65.6956 183.081 65.6956C181.391 65.6956 179.753 65.4314 178.168 64.9032C176.584 64.3221 175.131 63.5297 173.81 62.5261C172.49 61.5224 171.328 60.3338 170.324 58.9604C169.373 57.5341 168.686 56.0021 168.264 54.3646ZM183.874 36.5361C183.398 36.5361 182.685 36.7209 181.734 37.0907C180.783 37.4605 179.832 37.9359 178.882 38.517C177.931 39.0981 177.112 39.732 176.425 40.4187C175.738 41.1054 175.395 41.7922 175.395 42.4789V43.0336C175.765 42.8751 176.399 42.611 177.297 42.2412C178.248 41.8714 179.199 41.4224 180.149 40.8941C181.153 40.3131 182.025 39.6527 182.764 38.9132C183.504 38.1736 183.874 37.3813 183.874 36.5361Z" fill="white"/>
<path d="M195.759 58.9604C195.759 58.749 195.759 58.3264 195.759 57.6925C195.812 57.0058 195.838 56.5568 195.838 56.3455C197.529 52.4893 199.695 48.9236 202.336 45.6484C204.977 42.3732 207.962 39.4678 211.29 36.9322C211.395 36.9322 211.554 36.9058 211.765 36.853C212.029 36.7474 212.214 36.6945 212.32 36.6945C213.746 36.6945 214.908 37.0115 215.806 37.6454C216.757 38.2265 217.497 39.0188 218.025 40.0225C218.606 40.9734 219.002 42.0563 219.214 43.2713C219.425 44.4334 219.531 45.5692 219.531 46.6785C219.531 48.7387 219.055 50.9045 218.104 53.176C217.153 55.3946 215.859 57.4548 214.222 59.3565C212.637 61.2054 210.814 62.7374 208.754 63.9523C206.694 65.1145 204.555 65.6956 202.336 65.6956C200.117 65.6956 198.453 65.1145 197.344 63.9523C196.287 62.7374 195.759 61.0734 195.759 58.9604ZM201.94 58.0095C201.94 58.5906 202.177 58.9868 202.653 59.1981C203.128 59.4094 203.604 59.515 204.079 59.515C205.4 59.515 206.668 59.1716 207.883 58.4849C209.15 57.7454 210.26 56.8473 211.211 55.7908C212.214 54.6815 213.007 53.4665 213.588 52.1459C214.169 50.8253 214.459 49.5575 214.459 48.3425C214.459 47.7614 214.407 47.1275 214.301 46.4408C214.248 45.7012 214.09 45.0673 213.825 44.5391C213.561 43.958 213.139 43.509 212.558 43.192C212.029 42.8751 211.263 42.8223 210.26 43.0336C209.52 43.192 208.675 43.8788 207.724 45.0937C206.773 46.3087 205.849 47.735 204.951 49.3726C204.106 50.9573 203.392 52.5685 202.811 54.2061C202.23 55.7908 201.94 57.0586 201.94 58.0095Z" fill="white"/>
</svg>
